<mxfile host="app.diagrams.net" modified="2023-10-10T19:12:14.658Z" agent="Mozilla/5.0 (Windows NT 10.0; Win64; x64) AppleWebKit/537.36 (KHTML, like Gecko) Chrome/117.0.0.0 Safari/537.36" etag="kdMyYdtPMuHlR7nNz17q" version="22.0.4" type="github">
  <diagram name="Page-1" id="5f0bae14-7c28-e335-631c-24af17079c00">
    <mxGraphModel dx="1434" dy="758" grid="1" gridSize="10" guides="1" tooltips="1" connect="1" arrows="1" fold="1" page="1" pageScale="1" pageWidth="1100" pageHeight="850" background="none" math="0" shadow="0">
      <root>
        <mxCell id="0" />
        <mxCell id="1" parent="0" />
        <mxCell id="S9VukQKZtG6OWsave5vG-4" value="" style="edgeStyle=orthogonalEdgeStyle;rounded=0;orthogonalLoop=1;jettySize=auto;html=1;entryX=0;entryY=0.5;entryDx=0;entryDy=0;" edge="1" parent="1" source="S9VukQKZtG6OWsave5vG-2" target="S9VukQKZtG6OWsave5vG-3">
          <mxGeometry relative="1" as="geometry" />
        </mxCell>
        <mxCell id="S9VukQKZtG6OWsave5vG-25" style="edgeStyle=orthogonalEdgeStyle;rounded=0;orthogonalLoop=1;jettySize=auto;html=1;entryX=0;entryY=0.5;entryDx=0;entryDy=0;" edge="1" parent="1" source="S9VukQKZtG6OWsave5vG-2" target="S9VukQKZtG6OWsave5vG-5">
          <mxGeometry relative="1" as="geometry" />
        </mxCell>
        <mxCell id="S9VukQKZtG6OWsave5vG-26" style="edgeStyle=orthogonalEdgeStyle;rounded=0;orthogonalLoop=1;jettySize=auto;html=1;entryX=0;entryY=0.5;entryDx=0;entryDy=0;" edge="1" parent="1" source="S9VukQKZtG6OWsave5vG-2" target="S9VukQKZtG6OWsave5vG-6">
          <mxGeometry relative="1" as="geometry" />
        </mxCell>
        <mxCell id="S9VukQKZtG6OWsave5vG-27" style="edgeStyle=orthogonalEdgeStyle;rounded=0;orthogonalLoop=1;jettySize=auto;html=1;entryX=0;entryY=0.5;entryDx=0;entryDy=0;" edge="1" parent="1" source="S9VukQKZtG6OWsave5vG-2" target="S9VukQKZtG6OWsave5vG-7">
          <mxGeometry relative="1" as="geometry" />
        </mxCell>
        <mxCell id="S9VukQKZtG6OWsave5vG-28" style="edgeStyle=orthogonalEdgeStyle;rounded=0;orthogonalLoop=1;jettySize=auto;html=1;entryX=0;entryY=0.5;entryDx=0;entryDy=0;" edge="1" parent="1" source="S9VukQKZtG6OWsave5vG-2" target="S9VukQKZtG6OWsave5vG-8">
          <mxGeometry relative="1" as="geometry" />
        </mxCell>
        <mxCell id="S9VukQKZtG6OWsave5vG-29" style="edgeStyle=orthogonalEdgeStyle;rounded=0;orthogonalLoop=1;jettySize=auto;html=1;entryX=0;entryY=0.5;entryDx=0;entryDy=0;" edge="1" parent="1" source="S9VukQKZtG6OWsave5vG-2" target="S9VukQKZtG6OWsave5vG-9">
          <mxGeometry relative="1" as="geometry" />
        </mxCell>
        <mxCell id="S9VukQKZtG6OWsave5vG-30" style="edgeStyle=orthogonalEdgeStyle;rounded=0;orthogonalLoop=1;jettySize=auto;html=1;entryX=0;entryY=0.5;entryDx=0;entryDy=0;" edge="1" parent="1" source="S9VukQKZtG6OWsave5vG-2" target="S9VukQKZtG6OWsave5vG-11">
          <mxGeometry relative="1" as="geometry" />
        </mxCell>
        <mxCell id="S9VukQKZtG6OWsave5vG-31" style="edgeStyle=orthogonalEdgeStyle;rounded=0;orthogonalLoop=1;jettySize=auto;html=1;entryX=0;entryY=0.5;entryDx=0;entryDy=0;" edge="1" parent="1" source="S9VukQKZtG6OWsave5vG-2" target="S9VukQKZtG6OWsave5vG-13">
          <mxGeometry relative="1" as="geometry" />
        </mxCell>
        <mxCell id="S9VukQKZtG6OWsave5vG-32" style="edgeStyle=orthogonalEdgeStyle;rounded=0;orthogonalLoop=1;jettySize=auto;html=1;entryX=0;entryY=0.5;entryDx=0;entryDy=0;" edge="1" parent="1" source="S9VukQKZtG6OWsave5vG-2" target="S9VukQKZtG6OWsave5vG-10">
          <mxGeometry relative="1" as="geometry" />
        </mxCell>
        <mxCell id="S9VukQKZtG6OWsave5vG-33" style="edgeStyle=orthogonalEdgeStyle;rounded=0;orthogonalLoop=1;jettySize=auto;html=1;entryX=0;entryY=0.5;entryDx=0;entryDy=0;" edge="1" parent="1" source="S9VukQKZtG6OWsave5vG-2" target="S9VukQKZtG6OWsave5vG-12">
          <mxGeometry relative="1" as="geometry" />
        </mxCell>
        <mxCell id="S9VukQKZtG6OWsave5vG-2" value="Item" style="ellipse;whiteSpace=wrap;html=1;" vertex="1" parent="1">
          <mxGeometry x="30" y="430" width="100" height="80" as="geometry" />
        </mxCell>
        <mxCell id="S9VukQKZtG6OWsave5vG-3" value="Id" style="whiteSpace=wrap;html=1;" vertex="1" parent="1">
          <mxGeometry x="350" y="160" width="80" height="30" as="geometry" />
        </mxCell>
        <mxCell id="S9VukQKZtG6OWsave5vG-5" value="Name" style="whiteSpace=wrap;html=1;" vertex="1" parent="1">
          <mxGeometry x="350" y="210" width="80" height="30" as="geometry" />
        </mxCell>
        <mxCell id="S9VukQKZtG6OWsave5vG-6" value="Price" style="whiteSpace=wrap;html=1;" vertex="1" parent="1">
          <mxGeometry x="350" y="270" width="80" height="30" as="geometry" />
        </mxCell>
        <mxCell id="S9VukQKZtG6OWsave5vG-7" value="Color" style="whiteSpace=wrap;html=1;" vertex="1" parent="1">
          <mxGeometry x="350" y="320" width="80" height="30" as="geometry" />
        </mxCell>
        <mxCell id="S9VukQKZtG6OWsave5vG-8" value="Size" style="whiteSpace=wrap;html=1;" vertex="1" parent="1">
          <mxGeometry x="350" y="370" width="80" height="30" as="geometry" />
        </mxCell>
        <mxCell id="S9VukQKZtG6OWsave5vG-9" value="date" style="whiteSpace=wrap;html=1;" vertex="1" parent="1">
          <mxGeometry x="350" y="425" width="80" height="30" as="geometry" />
        </mxCell>
        <mxCell id="S9VukQKZtG6OWsave5vG-10" value="Publisher" style="whiteSpace=wrap;html=1;" vertex="1" parent="1">
          <mxGeometry x="350" y="590" width="80" height="30" as="geometry" />
        </mxCell>
        <mxCell id="S9VukQKZtG6OWsave5vG-11" value="coupon" style="whiteSpace=wrap;html=1;" vertex="1" parent="1">
          <mxGeometry x="350" y="480" width="80" height="30" as="geometry" />
        </mxCell>
        <mxCell id="S9VukQKZtG6OWsave5vG-23" style="edgeStyle=orthogonalEdgeStyle;rounded=0;orthogonalLoop=1;jettySize=auto;html=1;entryX=0;entryY=0.5;entryDx=0;entryDy=0;" edge="1" parent="1" source="S9VukQKZtG6OWsave5vG-12" target="S9VukQKZtG6OWsave5vG-17">
          <mxGeometry relative="1" as="geometry">
            <Array as="points">
              <mxPoint x="550" y="665" />
              <mxPoint x="550" y="725" />
            </Array>
          </mxGeometry>
        </mxCell>
        <mxCell id="S9VukQKZtG6OWsave5vG-34" style="edgeStyle=orthogonalEdgeStyle;rounded=0;orthogonalLoop=1;jettySize=auto;html=1;entryX=0;entryY=0.5;entryDx=0;entryDy=0;" edge="1" parent="1" source="S9VukQKZtG6OWsave5vG-12" target="S9VukQKZtG6OWsave5vG-14">
          <mxGeometry relative="1" as="geometry">
            <Array as="points">
              <mxPoint x="550" y="665" />
              <mxPoint x="550" y="583" />
            </Array>
          </mxGeometry>
        </mxCell>
        <mxCell id="S9VukQKZtG6OWsave5vG-35" style="edgeStyle=orthogonalEdgeStyle;rounded=0;orthogonalLoop=1;jettySize=auto;html=1;entryX=0;entryY=0.5;entryDx=0;entryDy=0;" edge="1" parent="1" source="S9VukQKZtG6OWsave5vG-12" target="S9VukQKZtG6OWsave5vG-18">
          <mxGeometry relative="1" as="geometry">
            <Array as="points">
              <mxPoint x="550" y="665" />
              <mxPoint x="550" y="815" />
            </Array>
          </mxGeometry>
        </mxCell>
        <mxCell id="S9VukQKZtG6OWsave5vG-36" style="edgeStyle=orthogonalEdgeStyle;rounded=0;orthogonalLoop=1;jettySize=auto;html=1;entryX=0;entryY=0.5;entryDx=0;entryDy=0;" edge="1" parent="1" source="S9VukQKZtG6OWsave5vG-12" target="S9VukQKZtG6OWsave5vG-16">
          <mxGeometry relative="1" as="geometry">
            <Array as="points">
              <mxPoint x="550" y="665" />
              <mxPoint x="550" y="653" />
            </Array>
          </mxGeometry>
        </mxCell>
        <mxCell id="S9VukQKZtG6OWsave5vG-12" value="Stores" style="whiteSpace=wrap;html=1;" vertex="1" parent="1">
          <mxGeometry x="350" y="650" width="80" height="30" as="geometry" />
        </mxCell>
        <mxCell id="S9VukQKZtG6OWsave5vG-38" value="" style="edgeStyle=orthogonalEdgeStyle;rounded=0;orthogonalLoop=1;jettySize=auto;html=1;entryX=0;entryY=0.5;entryDx=0;entryDy=0;" edge="1" parent="1" source="S9VukQKZtG6OWsave5vG-13" target="S9VukQKZtG6OWsave5vG-37">
          <mxGeometry relative="1" as="geometry">
            <Array as="points">
              <mxPoint x="470" y="545" />
              <mxPoint x="470" y="425" />
            </Array>
          </mxGeometry>
        </mxCell>
        <mxCell id="S9VukQKZtG6OWsave5vG-40" style="edgeStyle=orthogonalEdgeStyle;rounded=0;orthogonalLoop=1;jettySize=auto;html=1;entryX=0;entryY=0.5;entryDx=0;entryDy=0;" edge="1" parent="1" source="S9VukQKZtG6OWsave5vG-13" target="S9VukQKZtG6OWsave5vG-39">
          <mxGeometry relative="1" as="geometry">
            <Array as="points">
              <mxPoint x="470" y="545" />
              <mxPoint x="470" y="485" />
            </Array>
          </mxGeometry>
        </mxCell>
        <mxCell id="S9VukQKZtG6OWsave5vG-13" value="status" style="whiteSpace=wrap;html=1;" vertex="1" parent="1">
          <mxGeometry x="350" y="530" width="80" height="30" as="geometry" />
        </mxCell>
        <mxCell id="S9VukQKZtG6OWsave5vG-14" value="name" style="whiteSpace=wrap;html=1;" vertex="1" parent="1">
          <mxGeometry x="630" y="560" width="90" height="45" as="geometry" />
        </mxCell>
        <mxCell id="S9VukQKZtG6OWsave5vG-16" value="Location" style="whiteSpace=wrap;html=1;" vertex="1" parent="1">
          <mxGeometry x="630" y="630" width="90" height="45" as="geometry" />
        </mxCell>
        <mxCell id="S9VukQKZtG6OWsave5vG-17" value="Phone" style="whiteSpace=wrap;html=1;" vertex="1" parent="1">
          <mxGeometry x="630" y="700" width="90" height="50" as="geometry" />
        </mxCell>
        <mxCell id="S9VukQKZtG6OWsave5vG-18" value="Email" style="whiteSpace=wrap;html=1;" vertex="1" parent="1">
          <mxGeometry x="630" y="790" width="90" height="50" as="geometry" />
        </mxCell>
        <mxCell id="S9VukQKZtG6OWsave5vG-37" value="stock" style="whiteSpace=wrap;html=1;" vertex="1" parent="1">
          <mxGeometry x="520" y="410" width="80" height="30" as="geometry" />
        </mxCell>
        <mxCell id="S9VukQKZtG6OWsave5vG-39" value="out of stock" style="whiteSpace=wrap;html=1;" vertex="1" parent="1">
          <mxGeometry x="520" y="470" width="80" height="30" as="geometry" />
        </mxCell>
      </root>
    </mxGraphModel>
  </diagram>
</mxfile>
